<svg width="38" height="26" viewBox="0 0 38 26" fill="none" xmlns="http://www.w3.org/2000/svg">
<path d="M35.2857 0H2.71429C1.99442 0 1.30403 0.274099 0.794996 0.761999C0.285969 1.2499 0 1.91163 0 2.60163V7.95122V23.3984C0 24.0884 0.285969 24.7501 0.794996 25.238C1.30403 25.7259 1.99442 26 2.71429 26H35.2857C36.0056 26 36.696 25.7259 37.205 25.238C37.7141 24.7501 38 24.0884 38 23.3984V2.60163C38 1.91163 37.7141 1.2499 37.205 0.761999C36.696 0.274099 36.0056 0 35.2857 0ZM20.3572 20.8131H17.6429C17.283 20.8131 16.9378 20.676 16.6832 20.4321C16.4287 20.1881 16.2857 19.8572 16.2857 19.5122C16.2857 19.1672 16.4287 18.8364 16.6832 18.5924C16.9378 18.3485 17.283 18.2114 17.6429 18.2114H20.3572C20.7171 18.2114 21.0623 18.3485 21.3168 18.5924C21.5713 18.8364 21.7143 19.1672 21.7143 19.5122C21.7143 19.8572 21.5713 20.1881 21.3168 20.4321C21.0623 20.676 20.7171 20.8131 20.3572 20.8131ZM31.2143 20.8131H25.7857C25.4258 20.8131 25.0806 20.676 24.8261 20.4321C24.5716 20.1881 24.4286 19.8572 24.4286 19.5122C24.4286 19.1672 24.5716 18.8364 24.8261 18.5924C25.0806 18.3485 25.4258 18.2114 25.7857 18.2114H31.2143C31.5743 18.2114 31.9195 18.3485 32.174 18.5924C32.4285 18.8364 32.5715 19.1672 32.5715 19.5122C32.5715 19.8572 32.4285 20.1881 32.174 20.4321C31.9195 20.676 31.5743 20.8131 31.2143 20.8131ZM2.71429 6.65041V2.60163H35.2857V6.65041H2.71429Z" fill="#181818"/>
</svg>
