<svg width="30" height="30" viewBox="0 0 30 30" fill="none" xmlns="http://www.w3.org/2000/svg">
<g id="Instagram">
<path id="Icon" d="M15.36 29.24C23.4344 29.24 29.98 22.6944 29.98 14.62C29.98 6.5456 23.4344 0 15.36 0C7.28559 0 0.73999 6.5456 0.73999 14.62C0.73999 22.6944 7.28559 29.24 15.36 29.24Z" fill="black"/>
<g id="Group">
<g id="Group_2">
<path id="Icon_2" d="M19.8904 9.09033C19.3304 9.09033 18.8904 9.54033 18.8904 10.1003C18.8904 10.6603 19.3404 11.1103 19.8904 11.1103C20.4504 11.1103 20.9004 10.6603 20.9004 10.1003C20.9004 9.54033 20.4504 9.09033 19.8904 9.09033Z" fill="white"/>
<path id="Icon_3" d="M15.4297 10.3804C13.0997 10.3804 11.2097 12.2704 11.2097 14.6004C11.2097 16.9304 13.0997 18.8204 15.4297 18.8204C17.7597 18.8204 19.6497 16.9304 19.6497 14.6004C19.6497 12.2704 17.7497 10.3804 15.4297 10.3804ZM15.4297 17.3104C13.9397 17.3104 12.7297 16.1004 12.7297 14.6104C12.7297 13.1204 13.9397 11.9104 15.4297 11.9104C16.9197 11.9104 18.1297 13.1204 18.1297 14.6104C18.1297 16.1004 16.9197 17.3104 15.4297 17.3104Z" fill="white"/>
<path id="Icon_4" d="M18.78 23.1703H11.93C9.09002 23.1703 6.78003 20.8603 6.78003 18.0203V11.1803C6.78003 8.34027 9.09002 6.03027 11.93 6.03027H18.77C21.61 6.03027 23.92 8.34027 23.92 11.1803V18.0203C23.93 20.8603 21.62 23.1703 18.78 23.1703ZM11.93 7.64027C9.98002 7.64027 8.39003 9.23027 8.39003 11.1803V18.0203C8.39003 19.9703 9.98002 21.5603 11.93 21.5603H18.77C20.72 21.5603 22.31 19.9703 22.31 18.0203V11.1803C22.31 9.23027 20.72 7.64027 18.77 7.64027H11.93Z" fill="white"/>
</g>
</g>
</g>
</svg>
