<svg width="30" height="30" viewBox="0 0 30 30" fill="none" xmlns="http://www.w3.org/2000/svg">
<g id="Facebook">
<path id="Icon" d="M29.74 14.62C29.74 6.54 23.19 0 15.12 0C7.04 0 0.5 6.55 0.5 14.62C0.5 21.92 5.85 27.97 12.84 29.06V18.85H9.13V14.62H12.84V11.4C12.84 7.74 15.02 5.71 18.36 5.71C19.96 5.71 21.63 6 21.63 6V9.6H19.79C17.97 9.6 17.41 10.73 17.41 11.88V14.62H21.47L20.82 18.85H17.41V29.07C24.39 27.97 29.74 21.92 29.74 14.62Z" fill="black"/>
<path id="Icon_2" d="M20.8101 18.85L21.4601 14.62H17.4001V11.88C17.4001 10.72 17.9701 9.59996 19.7801 9.59996H21.6201V5.99996C21.6201 5.99996 19.9501 5.70996 18.3501 5.70996C15.0101 5.70996 12.8301 7.72996 12.8301 11.4V14.62H9.12012V18.85H12.8301V29.07C13.5701 29.19 14.3401 29.25 15.1101 29.25C15.8901 29.25 16.6501 29.19 17.3901 29.07V18.85H20.8101Z" fill="white"/>
</g>
</svg>
