<svg width="31" height="30" viewBox="0 0 31 30" fill="none" xmlns="http://www.w3.org/2000/svg">
<g id="Twitter">
<path id="Icon" d="M15.6 29.24C23.6744 29.24 30.22 22.6944 30.22 14.62C30.22 6.5456 23.6744 0 15.6 0C7.52558 0 0.97998 6.5456 0.97998 14.62C0.97998 22.6944 7.52558 29.24 15.6 29.24Z" fill="black"/>
<path id="Icon_2" d="M23.6798 9.61011C23.1698 9.84011 22.6098 9.98011 22.0698 10.0701C22.3298 10.0301 22.7098 9.56011 22.8598 9.37011C23.0898 9.08011 23.2898 8.75011 23.3998 8.39011C23.4098 8.36011 23.4198 8.33011 23.3998 8.31011C23.3598 8.30011 23.3398 8.30011 23.3098 8.32011C22.6998 8.65011 22.0698 8.88011 21.3998 9.05011C21.3398 9.06011 21.2998 9.05011 21.2698 9.02011C21.2098 8.96011 21.1598 8.90011 21.0998 8.85011C20.8198 8.61011 20.5198 8.42011 20.1698 8.28011C19.7198 8.10011 19.2298 8.02011 18.7498 8.05011C18.2798 8.08011 17.8198 8.21011 17.3998 8.43011C16.9798 8.65011 16.6098 8.95011 16.3098 9.32011C15.9998 9.70011 15.7798 10.1501 15.6598 10.6201C15.5498 11.0801 15.5598 11.5301 15.6298 11.9901C15.6398 12.0701 15.6298 12.0801 15.5598 12.0701C12.9298 11.6801 10.7598 10.7401 8.9898 8.73011C8.9098 8.64011 8.8698 8.64011 8.8098 8.74011C8.0398 9.90011 8.4098 11.7601 9.3798 12.6801C9.5098 12.8001 9.6398 12.9201 9.7798 13.0401C9.7298 13.0501 9.08981 12.9801 8.50981 12.6801C8.42981 12.6301 8.3898 12.6601 8.3898 12.7501C8.3798 12.8801 8.3898 12.9901 8.4098 13.1301C8.5598 14.3001 9.3698 15.3901 10.4898 15.8201C10.6198 15.8801 10.7698 15.9201 10.9098 15.9501C10.6598 16.0101 10.3898 16.0501 9.6698 15.9901C9.5798 15.9701 9.53981 16.0201 9.57981 16.1001C10.1298 17.5901 11.3098 18.0401 12.1898 18.2901C12.3098 18.3101 12.4298 18.3101 12.5498 18.3401C12.5398 18.3501 12.5398 18.3501 12.5298 18.3601C12.2398 18.8101 11.2198 19.1401 10.7498 19.3101C9.88981 19.6101 8.94981 19.7501 8.03981 19.6601C7.88981 19.6401 7.85981 19.6401 7.81981 19.6601C7.77981 19.6801 7.80981 19.7201 7.85981 19.7601C8.03981 19.8801 8.2298 19.9901 8.4198 20.0901C8.9998 20.4001 9.5998 20.6401 10.2298 20.8101C13.4898 21.7101 17.1498 21.0501 19.5998 18.6201C21.5198 16.7101 22.1898 14.0801 22.1898 11.4501C22.1898 11.3501 22.3098 11.2901 22.3798 11.2401C22.8798 10.8601 23.2798 10.4201 23.6498 9.91011C23.7298 9.80011 23.7298 9.70011 23.7298 9.66011C23.7298 9.65011 23.7298 9.65011 23.7298 9.65011C23.7498 9.57011 23.7498 9.58011 23.6798 9.61011Z" fill="white"/>
</g>
</svg>
