<svg width="25" height="24" viewBox="0 0 25 24" fill="none" xmlns="http://www.w3.org/2000/svg">
<g id="Instagram">
<path id="Icon" d="M17.5198 2.19245C18.8451 2.19626 20.115 2.70456 21.0521 3.60634C21.9893 4.50812 22.5175 5.7301 22.5214 7.0054V16.6303C22.5175 17.9056 21.9893 19.1276 21.0521 20.0293C20.115 20.9311 18.8451 21.4394 17.5198 21.4432H7.5176C6.1923 21.4394 4.92241 20.9311 3.98528 20.0293C3.04814 19.1276 2.51992 17.9056 2.51596 16.6303V7.0054C2.51992 5.7301 3.04814 4.50812 3.98528 3.60634C4.92241 2.70456 6.1923 2.19626 7.5176 2.19245H17.5198ZM17.5198 0.267578H7.5176C3.66643 0.267578 0.515625 3.29952 0.515625 7.0054V16.6303C0.515625 20.3362 3.66643 23.3681 7.5176 23.3681H17.5198C21.371 23.3681 24.5218 20.3362 24.5218 16.6303V7.0054C24.5218 3.29952 21.371 0.267578 17.5198 0.267578Z" fill="#181818"/>
<path id="Icon_2" d="M19.0196 7.00597C18.7229 7.00597 18.4328 6.9213 18.1861 6.76265C17.9393 6.60401 17.747 6.37852 17.6335 6.1147C17.5199 5.85089 17.4902 5.56059 17.5481 5.28052C17.606 5.00046 17.7489 4.7432 17.9587 4.54128C18.1685 4.33937 18.4359 4.20186 18.7269 4.14615C19.018 4.09044 19.3196 4.11903 19.5938 4.22831C19.868 4.33759 20.1023 4.52264 20.2672 4.76007C20.432 4.9975 20.52 5.27664 20.52 5.56219C20.5204 5.75191 20.4819 5.93983 20.4067 6.11519C20.3314 6.29054 20.2209 6.44986 20.0815 6.58401C19.9421 6.71816 19.7765 6.82449 19.5943 6.8969C19.4121 6.96932 19.2168 7.00638 19.0196 7.00597ZM12.5181 7.96815C13.3095 7.96815 14.0831 8.19397 14.7411 8.61704C15.3991 9.04011 15.9119 9.64144 16.2148 10.345C16.5176 11.0485 16.5969 11.8227 16.4425 12.5696C16.2881 13.3164 15.907 14.0025 15.3474 14.541C14.7878 15.0794 14.0749 15.4461 13.2987 15.5947C12.5226 15.7433 11.7181 15.667 10.9869 15.3756C10.2558 15.0842 9.63092 14.5907 9.19126 13.9575C8.7516 13.3243 8.51694 12.5799 8.51694 11.8184C8.51807 10.7976 8.93999 9.8189 9.69012 9.09707C10.4402 8.37525 11.4573 7.96925 12.5181 7.96815ZM12.5181 6.04328C11.3312 6.04328 10.1708 6.38199 9.18387 7.01657C8.19692 7.65115 7.42769 8.5531 6.97344 9.60837C6.5192 10.6636 6.40035 11.8248 6.63192 12.9451C6.86349 14.0654 7.43508 15.0944 8.27441 15.902C9.11374 16.7097 10.1831 17.2597 11.3473 17.4826C12.5115 17.7054 13.7182 17.591 14.8148 17.1539C15.9115 16.7168 16.8488 15.9766 17.5082 15.0269C18.1677 14.0772 18.5197 12.9606 18.5197 11.8184C18.5197 10.2868 17.8874 8.81783 16.7619 7.73478C15.6364 6.65173 14.1098 6.04328 12.5181 6.04328Z" fill="#181818"/>
</g>
</svg>
