<svg width="24" height="20" viewBox="0 0 24 20" fill="none" xmlns="http://www.w3.org/2000/svg">
<g id="Twitter">
<path id="Icon" d="M23.4854 2.75508C22.6167 3.13225 21.6976 3.38073 20.7572 3.49269C21.7455 2.91435 22.4888 1.99556 22.8476 0.908642C21.9131 1.45466 20.8925 1.83778 19.8294 2.04157C19.3818 1.57275 18.8434 1.19978 18.247 0.945351C17.6506 0.69092 17.0086 0.560334 16.3602 0.561532C13.7347 0.561532 11.61 2.65384 11.61 5.23306C11.6082 5.59182 11.6493 5.94951 11.7326 6.2985C9.84994 6.2103 8.00645 5.73038 6.32005 4.88945C4.63365 4.04851 3.14148 2.86507 1.939 1.41484C1.51714 2.12551 1.29404 2.93637 1.29301 3.76266C1.29301 5.38251 2.13873 6.81434 3.41576 7.65319C2.65916 7.63525 1.91806 7.43514 1.25538 7.06985V7.1277C1.25538 9.39356 2.89568 11.2786 5.06668 11.7076C4.65842 11.8164 4.23773 11.8715 3.81522 11.8715C3.51542 11.8721 3.2163 11.843 2.92222 11.7848C3.52575 13.6408 5.28233 14.9907 7.3631 15.0293C5.67232 16.3314 3.59649 17.0352 1.46186 17.03C1.08296 17.0294 0.704414 17.0069 0.328125 16.9625C2.49969 18.3482 5.02395 19.0811 7.60046 19.0741C16.35 19.0741 21.1301 11.9535 21.1301 5.77783C21.1301 5.57535 21.1248 5.37287 21.1151 5.17521C22.0429 4.51573 22.8456 3.69619 23.4854 2.75508Z" fill="#181818"/>
</g>
</svg>
